<svg id="SvgjsSvg1013" width="288" height="288" xmlns="http://www.w3.org/2000/svg" version="1.1" xmlns:xlink="http://www.w3.org/1999/xlink" xmlns:svgjs="http://svgjs.com/svgjs"><defs id="SvgjsDefs1014"></defs><g id="SvgjsG1015"><svg xmlns="http://www.w3.org/2000/svg" width="288" height="288" version="1.0" viewBox="0 0 1326 363"><g transform="matrix(.1 0 0 -.1 0 363)" fill="#0e58b9" class="color000 svgShape"><path d="M1636 2889c-514-75-896-518-896-1039 0-97 21-256 38-287 5-7 101 105 246 288l240 299 208 0 208 0 260 326c143 179 260 330 260 335 0 12-148 57-247 74-92 16-222 18-317 4zM2055 2453c-210-264-242-310-231-323 7-8 100-125 206-260 106-135 198-251 205-259 11-11 56 40 271 309l257 323-33 66c-50 101-117 197-197 277-66 67-205 174-225 174-4 0-118-138-253-307zM5130 2535c-259-58-447-226-527-470-22-67-26-99-27-200-1-139 14-209 72-325 53-110 177-232 292-288 125-61 193-77 340-77 201 0 352 56 485 177 141 129 214 286 222 478 15 329-171 589-492 690-92 28-272 36-365 15zm261-271c109-32 203-113 256-223 26-52 28-65 28-181 0-122-1-127-33-192-43-88-106-152-190-191-61-29-75-32-167-32-92 0-106 3-167 32-88 41-160 113-201 201-30 63-32 73-32 182 0 108 2 119 32 182 89 189 281 279 474 222zM11260 2536c-36-8-83-21-106-29-203-73-361-249-420-467-28-101-25-283 5-380 59-193 175-333 342-413 124-60 229-82 364-74 183 10 316 63 431 171l69 65-92 92c-90 91-92 92-115 76-13-10-48-35-78-57-80-58-137-75-250-75-86 0-101 3-160 31-85 40-145 102-188 192-30 63-36 86-40 167-4 79-1 106 17 162 56 174 200 283 372 283 101 0 187-34 293-115l45-34 93 106 92 106-54 49c-61 55-163 108-255 133-84 22-283 28-365 11zM3330 1860l0-670 480 0 480 0 0 135 0 135-335 0-335 0 0 535 0 535-145 0-145 0 0-670zM6380 1860l0-670 145 0 145 0 0 421c0 336 3 419 13 411 6-6 152-195 322-421l310-410 128 0 127-1 0 670 0 670-145 0-145 0-2-410-3-411-310 410-310 410-137 0-138 1 0-670zM7920 2395l0-135 200 0 200 0 0-535 0-535 150 0 150 0 0 535 0 535 200 0 200 0 0 135 0 135-550 0-550 0 0-135zM9370 1860l0-670 510 0 510 0 0 135 0 135-365 0-365 0 0 135 0 135 315 0 315 0 0 135 0 135-315 0-315 0 0 130 0 130 360 0 360 0 0 135 0 135-505 0-505 0 0-670z" fill="#0e58b9" class="color000 svgShape"></path><path d="M2555 1814l-240-303-222-1-222 0-247-311c-191-241-244-313-233-320 25-16 142-49 227-64 210-37 436-2 636 96 295 146 497 415 567 754 24 114 11 388-20 441-3 6-114-125-246-292zM1080 1753c-135-169-246-312-248-320-5-19 70-154 122-221 101-130 306-297 332-270 6 7 111 138 232 291l221 278-201 267c-111 147-204 270-207 274-3 4-116-131-251-299z" fill="#0e58b9" class="color000 svgShape"></path></g></svg></g></svg>